<svg width="128" height="128" version="1.1" xmlns="http://www.w3.org/2000/svg" desc="Created with imagetracer.js version 1.2.6" ><path fill="rgb(0,168,229)" stroke="rgb(0,168,229)" stroke-width="1" opacity="1" d="M 16.5 10 L 16.5 11 L 16.5 10 Z " /><path fill="rgb(0,168,229)" stroke="rgb(0,168,229)" stroke-width="1" opacity="1" d="M 71.5 13 L 71.5 14 L 71.5 13 Z " /><path fill="rgb(0,168,229)" stroke="rgb(0,168,229)" stroke-width="1" opacity="1" d="M 95.5 45 L 95.5 46 L 95.5 45 Z " /><path fill="rgb(0,168,229)" stroke="rgb(0,168,229)" stroke-width="1" opacity="1" d="M 66.5 49 L 66.5 50 L 66.5 49 Z " /><path fill="rgb(0,168,229)" stroke="rgb(0,168,229)" stroke-width="1" opacity="1" d="M 69.5 49 L 69.5 50 L 69.5 49 Z " /><path fill="rgb(0,168,229)" stroke="rgb(0,168,229)" stroke-width="1" opacity="1" d="M 99.5 49 L 99.5 50 L 99.5 49 Z " /><path fill="rgb(0,168,229)" stroke="rgb(0,168,229)" stroke-width="1" opacity="1" d="M 31.5 50 L 31.5 51 L 31.5 50 Z " /><path fill="rgb(0,168,229)" stroke="rgb(0,168,229)" stroke-width="1" opacity="1" d="M 104.5 50 L 104.5 51 L 104.5 50 Z " /><path fill="rgb(0,168,229)" stroke="rgb(0,168,229)" stroke-width="1" opacity="1" d="M 74.5 51 L 74.5 52 L 74.5 51 Z " /><path fill="rgb(0,168,229)" stroke="rgb(0,168,229)" stroke-width="1" opacity="1" d="M 77.5 54 L 77.5 55 L 77.5 54 Z " /><path fill="rgb(0,168,229)" stroke="rgb(0,168,229)" stroke-width="1" opacity="1" d="M 78.5 56 L 78.5 57 L 78.5 56 Z " /><path fill="rgb(0,168,229)" stroke="rgb(0,168,229)" stroke-width="1" opacity="1" d="M 56.5 58 L 56.5 59 L 56.5 58 Z " /><path fill="rgb(0,168,229)" stroke="rgb(0,168,229)" stroke-width="1" opacity="1" d="M 79.5 60 L 80 61.5 L 79 61.5 L 79.5 60 Z " /><path fill="rgb(0,168,229)" stroke="rgb(0,168,229)" stroke-width="1" opacity="1" d="M 78.5 65 L 78.5 66 L 78.5 65 Z " /><path fill="rgb(0,168,229)" stroke="rgb(0,168,229)" stroke-width="1" opacity="1" d="M 77.5 67 Q 79 68 76.5 69 Q 75 68 77.5 67 Z " /><path fill="rgb(0,168,229)" stroke="rgb(0,168,229)" stroke-width="1" opacity="1" d="M 74.5 70 L 74.5 71 L 74.5 70 Z " /><path fill="rgb(0,168,229)" stroke="rgb(0,168,229)" stroke-width="1" opacity="1" d="M 32.5 71 L 32.5 72 L 32.5 71 Z " /><path fill="rgb(0,168,229)" stroke="rgb(0,168,229)" stroke-width="1" opacity="1" d="M 72.5 71 L 72.5 72 L 72.5 71 Z " /><path fill="rgb(0,168,229)" stroke="rgb(0,168,229)" stroke-width="1" opacity="1" d="M 36.5 72 L 36.5 73 L 36.5 72 Z " /><path fill="rgb(0,168,229)" stroke="rgb(0,168,229)" stroke-width="1" opacity="1" d="M 66.5 72 L 69 72.5 L 66.5 73 L 66.5 72 Z " /><path fill="rgb(0,168,229)" stroke="rgb(0,168,229)" stroke-width="1" opacity="1" d="M 35.5 107 L 35.5 108 L 35.5 107 Z " /><path fill="rgb(0,168,229)" stroke="rgb(0,168,229)" stroke-width="1" opacity="1" d="M 35.5 110 L 35.5 111 L 35.5 110 Z " /><path fill="rgb(0,168,229)" stroke="rgb(0,168,229)" stroke-width="1" opacity="1" d="M 71.5 114 L 71.5 115 L 71.5 114 Z " /><path fill="rgb(0,168,229)" stroke="rgb(0,168,229)" stroke-width="1" opacity="1" d="M 16.5 117 L 16.5 118 L 16.5 117 Z " /><path fill="rgb(0,168,229)" stroke="rgb(0,168,229)" stroke-width="1" opacity="1" d="M 68.5 117 L 68.5 118 L 68.5 117 Z " /><path fill="rgb(0,172,234)" stroke="rgb(0,172,234)" stroke-width="1" opacity="1" d="M 17.5 10 L 67.5 10 L 71 12.5 L 72 14.5 L 72 24 L 13.5 24 L 13 23.5 L 13 13.5 L 17.5 10 Z " /><path fill="rgb(0,172,234)" stroke="rgb(0,172,234)" stroke-width="1" opacity="1" d="M 27 39 L 109 39 L 109 67 Q 106.04 67.38 106 66.5 L 106 51.5 Q 105 49 100.5 50 L 96 46.5 L 95 42 L 41.5 42 Q 40.75 41.75 41 44.5 L 37.5 49 Q 35.67 50.67 31.5 50 L 30 51.5 L 30 70.5 L 31.5 71 L 37.5 73 L 40 75.5 L 41 80 L 89.5 80 L 91 81.5 L 89.5 83 L 27 83 L 27 39 Z " /><path fill="rgb(0,172,234)" stroke="rgb(0,172,234)" stroke-width="1" opacity="1" d="M 67.5 49 L 72.5 50 L 77 53.5 L 79 57.5 L 79 64.5 L 76 68.5 L 76 70 L 71.5 72 L 63.5 72 L 58 67.5 L 56 62.5 L 56 59.5 L 58 54.5 L 61.5 51 L 67.5 49 Z " /><path fill="rgb(0,172,234)" stroke="rgb(0,172,234)" stroke-width="1" opacity="1" d="M 13 100 L 71.5 100 L 72 100.5 L 72 113.5 L 69.5 117 L 67.5 118 L 17.5 118 L 13 114.5 L 13 100 Z M 35 107 Q 34 111 36 111 L 49 111 L 50 109 L 49 107 L 35 107 Z " /><path fill="rgb(0,0,0)" stroke="rgb(0,0,0)" stroke-width="1" opacity="0" d="M 0 0 L 128 0 L 128 128 L 0 128 L 0 0 Z M 17 6 L 13 8 L 9 13 L 9 116 L 10 118 L 17 122 L 69 122 L 73 120 L 76 115 L 76 86 L 90 86 Q 92 87 90 89 L 90 100 L 93 102 L 117 102 L 119 100 Q 120 95 118 95 Q 120 93 119 89 Q 117 88 119 87 Q 120 82 118 82 Q 120 80 119 76 Q 117 75 119 74 Q 120 68 117 67 Q 112 67 112 67 L 112 36 L 76 36 L 76 14 L 74 10 L 68 6 L 17 6 Z " /><path fill="rgb(1,218,196)" stroke="rgb(1,218,196)" stroke-width="1" opacity="1" d="M 12.5 28 L 13 96.5 L 12 96.5 L 12.5 28 Z " /><path fill="rgb(1,218,196)" stroke="rgb(1,218,196)" stroke-width="1" opacity="1" d="M 23.5 37 L 24 84.5 L 23 84.5 L 23.5 37 Z " /><path fill="rgb(1,218,196)" stroke="rgb(1,218,196)" stroke-width="1" opacity="1" d="M 94.5 70 Q 96 71 93.5 72 Q 92 71 94.5 70 Z " /><path fill="rgb(1,218,196)" stroke="rgb(1,218,196)" stroke-width="1" opacity="1" d="M 114.5 70 Q 117 71 115.5 72 Q 113 71 114.5 70 Z " /><path fill="rgb(1,218,196)" stroke="rgb(1,218,196)" stroke-width="1" opacity="1" d="M 93.5 84 L 93.5 85 L 93.5 84 Z " /><path fill="rgb(1,218,196)" stroke="rgb(1,218,196)" stroke-width="1" opacity="1" d="M 115.5 84 L 115.5 85 L 115.5 84 Z " /><path fill="rgb(1,218,196)" stroke="rgb(1,218,196)" stroke-width="1" opacity="1" d="M 93.5 97 Q 96 98 94.5 99 Q 92 98 93.5 97 Z " /><path fill="rgb(1,218,196)" stroke="rgb(1,218,196)" stroke-width="1" opacity="1" d="M 115.5 97 Q 117 98 114.5 99 Q 113 98 115.5 97 Z " /><path fill="rgb(0,239,209)" stroke="rgb(0,239,209)" stroke-width="1" opacity="1" d="M 13 28 L 71.5 28 L 72 28.5 L 72 36 L 24.5 36 L 23 37.5 L 23 84.5 L 24.5 86 L 71.5 86 L 72 86.5 L 72 97 L 13 97 L 13 28 Z " /><path fill="rgb(0,239,209)" stroke="rgb(0,239,209)" stroke-width="1" opacity="1" d="M 95.5 70 L 113.5 70 L 115 71.5 L 114.5 73 L 94 73 L 95.5 70 Z " /><path fill="rgb(0,239,209)" stroke="rgb(0,239,209)" stroke-width="1" opacity="1" d="M 94 83 L 114.5 83 Q 115.38 83.04 115 86 L 94.5 86 Q 93.63 85.96 94 83 Z " /><path fill="rgb(0,239,209)" stroke="rgb(0,239,209)" stroke-width="1" opacity="1" d="M 94 96 L 114.5 96 L 115 97.5 L 113.5 99 L 95.5 99 L 94 96 Z " /><path fill="rgb(8,55,98)" stroke="rgb(8,55,98)" stroke-width="1" opacity="0.5372549019607843" d="M 16.5 6 L 68 6.5 L 16.5 7 L 16.5 6 Z " /><path fill="rgb(8,55,98)" stroke="rgb(8,55,98)" stroke-width="1" opacity="0.5372549019607843" d="M 14.5 7 L 14.5 8 L 14.5 7 Z " /><path fill="rgb(8,55,98)" stroke="rgb(8,55,98)" stroke-width="1" opacity="0.5372549019607843" d="M 69.5 7 L 74 9.5 L 75 11.5 Q 74 13 73 10.5 Q 73.75 8.25 71.5 9 L 69 7.5 L 69.5 7 Z " /><path fill="rgb(8,55,98)" stroke="rgb(8,55,98)" stroke-width="1" opacity="0.5372549019607843" d="M 12.5 8 L 13 8.5 L 11 10.5 L 10 12.5 L 10 115.5 L 13 119.5 L 12.5 120 L 10 117.5 L 9 115.5 L 9 12.5 L 12.5 8 Z " /><path fill="rgb(8,55,98)" stroke="rgb(8,55,98)" stroke-width="1" opacity="0.5372549019607843" d="M 75.5 13 L 76 35.5 L 75 35.5 L 75.5 13 Z " /><path fill="rgb(8,55,98)" stroke="rgb(8,55,98)" stroke-width="1" opacity="0.5372549019607843" d="M 111.5 36 L 111.5 37 L 111.5 36 Z " /><path fill="rgb(8,55,98)" stroke="rgb(8,55,98)" stroke-width="1" opacity="0.5372549019607843" d="M 115.5 67 L 119 69.5 L 118.5 74 L 118 69.5 L 116.5 68 Q 114.13 67.88 115.5 67 Z " /><path fill="rgb(8,55,98)" stroke="rgb(8,55,98)" stroke-width="1" opacity="0.5372549019607843" d="M 118.5 75 L 119 80.5 Q 117 81.5 119 82.5 Q 120 86.5 118 87.5 Q 120.25 88.75 119 93.5 L 118 93.5 Q 119.25 88.75 117 87.5 Q 119 86.5 118 82.5 Q 116 81.5 118 80.5 L 118.5 75 Z " /><path fill="rgb(8,55,98)" stroke="rgb(8,55,98)" stroke-width="1" opacity="0.5372549019607843" d="M 75.5 86 L 76 114.5 L 75 114.5 L 75.5 86 Z " /><path fill="rgb(8,55,98)" stroke="rgb(8,55,98)" stroke-width="1" opacity="0.5372549019607843" d="M 90.5 86 L 90.5 87 L 90.5 86 Z " /><path fill="rgb(8,55,98)" stroke="rgb(8,55,98)" stroke-width="1" opacity="0.5372549019607843" d="M 90.5 88 L 91 89.5 L 90 89.5 L 90.5 88 Z " /><path fill="rgb(8,55,98)" stroke="rgb(8,55,98)" stroke-width="1" opacity="0.5372549019607843" d="M 90.5 91 L 91 96.5 L 90 96.5 L 90.5 91 Z " /><path fill="rgb(8,55,98)" stroke="rgb(8,55,98)" stroke-width="1" opacity="0.5372549019607843" d="M 118.5 95 L 119 99.5 L 115.5 102 L 115.5 101 L 118 99.5 L 118.5 95 Z " /><path fill="rgb(8,55,98)" stroke="rgb(8,55,98)" stroke-width="1" opacity="0.5372549019607843" d="M 90.5 98 L 93 101.5 L 92.5 102 L 90 99.5 L 90.5 98 Z " /><path fill="rgb(8,55,98)" stroke="rgb(8,55,98)" stroke-width="1" opacity="0.5372549019607843" d="M 74.5 116 L 74 117.5 L 72.5 120 L 68.5 122 L 16.5 122 L 16.5 121 L 68.5 121 L 73 119 L 74.5 116 Z " /><path fill="rgb(8,55,98)" stroke="rgb(8,55,98)" stroke-width="1" opacity="0.5372549019607843" d="M 14.5 120 L 14.5 121 L 14.5 120 Z " /><path fill="rgb(9,58,101)" stroke="rgb(9,58,101)" stroke-width="1" opacity="0.996078431372549" d="M 16.5 9 L 68 9.5 L 16.5 10 L 16.5 9 Z " /><path fill="rgb(9,58,101)" stroke="rgb(9,58,101)" stroke-width="1" opacity="0.996078431372549" d="M 14.5 10 Q 16 11 13.5 12 Q 12 11 14.5 10 Z " /><path fill="rgb(9,58,101)" stroke="rgb(9,58,101)" stroke-width="1" opacity="0.996078431372549" d="M 12.5 13 L 12.5 14 L 12.5 13 Z " /><path fill="rgb(9,58,101)" stroke="rgb(9,58,101)" stroke-width="1" opacity="0.996078431372549" d="M 72.5 13 L 72.5 14 L 72.5 13 Z " /><path fill="rgb(9,58,101)" stroke="rgb(9,58,101)" stroke-width="1" opacity="0.996078431372549" d="M 72.5 24 L 72.5 25 L 72.5 24 Z " /><path fill="rgb(9,58,101)" stroke="rgb(9,58,101)" stroke-width="1" opacity="0.996078431372549" d="M 72.5 27 L 72.5 28 L 72.5 27 Z " /><path fill="rgb(9,58,101)" stroke="rgb(9,58,101)" stroke-width="1" opacity="0.996078431372549" d="M 26.5 39 L 27 82.5 L 26 82.5 L 26.5 39 Z " /><path fill="rgb(9,58,101)" stroke="rgb(9,58,101)" stroke-width="1" opacity="0.996078431372549" d="M 42.5 42 L 42 43.5 L 41.5 45 L 41 43.5 L 42.5 42 Z " /><path fill="rgb(9,58,101)" stroke="rgb(9,58,101)" stroke-width="1" opacity="0.996078431372549" d="M 93.5 42 L 93.5 43 L 93.5 42 Z " /><path fill="rgb(9,58,101)" stroke="rgb(9,58,101)" stroke-width="1" opacity="0.996078431372549" d="M 94.5 44 L 95 45.5 L 94 45.5 L 94.5 44 Z " /><path fill="rgb(9,58,101)" stroke="rgb(9,58,101)" stroke-width="1" opacity="0.996078431372549" d="M 43.5 45 L 43.5 46 L 43.5 45 Z " /><path fill="rgb(9,58,101)" stroke="rgb(9,58,101)" stroke-width="1" opacity="0.996078431372549" d="M 92.5 45 L 93 46.5 L 92 46.5 L 92.5 45 Z " /><path fill="rgb(9,58,101)" stroke="rgb(9,58,101)" stroke-width="1" opacity="0.996078431372549" d="M 64.5 46 L 66 46.5 L 64.5 47 L 64.5 46 Z " /><path fill="rgb(9,58,101)" stroke="rgb(9,58,101)" stroke-width="1" opacity="0.996078431372549" d="M 69.5 46 L 71 46.5 L 69.5 47 L 69.5 46 Z " /><path fill="rgb(9,58,101)" stroke="rgb(9,58,101)" stroke-width="1" opacity="0.996078431372549" d="M 62.5 47 L 62.5 48 L 62.5 47 Z " /><path fill="rgb(9,58,101)" stroke="rgb(9,58,101)" stroke-width="1" opacity="0.996078431372549" d="M 73.5 47 L 73.5 48 L 73.5 47 Z " /><path fill="rgb(9,58,101)" stroke="rgb(9,58,101)" stroke-width="1" opacity="0.996078431372549" d="M 95.5 47 L 98 49.5 L 97.5 50 L 95 47.5 L 95.5 47 Z " /><path fill="rgb(9,58,101)" stroke="rgb(9,58,101)" stroke-width="1" opacity="0.996078431372549" d="M 39.5 48 L 39.5 49 L 39.5 48 Z " /><path fill="rgb(9,58,101)" stroke="rgb(9,58,101)" stroke-width="1" opacity="0.996078431372549" d="M 42.5 48 L 43 48.5 L 39.5 52 L 39 51.5 L 42.5 48 Z " /><path fill="rgb(9,58,101)" stroke="rgb(9,58,101)" stroke-width="1" opacity="0.996078431372549" d="M 60.5 48 L 60.5 49 L 60.5 48 Z " /><path fill="rgb(9,58,101)" stroke="rgb(9,58,101)" stroke-width="1" opacity="0.996078431372549" d="M 67.5 48 L 69 48.5 L 67.5 49 L 67.5 48 Z " /><path fill="rgb(9,58,101)" stroke="rgb(9,58,101)" stroke-width="1" opacity="0.996078431372549" d="M 75.5 48 L 75.5 49 L 75.5 48 Z " /><path fill="rgb(9,58,101)" stroke="rgb(9,58,101)" stroke-width="1" opacity="0.996078431372549" d="M 93.5 48 L 97 51.5 L 96.5 52 L 93 48.5 L 93.5 48 Z " /><path fill="rgb(9,58,101)" stroke="rgb(9,58,101)" stroke-width="1" opacity="0.996078431372549" d="M 58.5 49 L 59 49.5 L 56.5 52 L 56 51.5 L 58.5 49 Z " /><path fill="rgb(9,58,101)" stroke="rgb(9,58,101)" stroke-width="1" opacity="0.996078431372549" d="M 63.5 49 L 63.5 50 L 63.5 49 Z " /><path fill="rgb(9,58,101)" stroke="rgb(9,58,101)" stroke-width="1" opacity="0.996078431372549" d="M 72.5 49 L 72.5 50 L 72.5 49 Z " /><path fill="rgb(9,58,101)" stroke="rgb(9,58,101)" stroke-width="1" opacity="0.996078431372549" d="M 35.5 50 L 35.5 51 L 35.5 50 Z " /><path fill="rgb(9,58,101)" stroke="rgb(9,58,101)" stroke-width="1" opacity="0.996078431372549" d="M 61.5 50 L 61.5 51 L 61.5 50 Z " /><path fill="rgb(9,58,101)" stroke="rgb(9,58,101)" stroke-width="1" opacity="0.996078431372549" d="M 74.5 50 L 74.5 51 L 74.5 50 Z " /><path fill="rgb(9,58,101)" stroke="rgb(9,58,101)" stroke-width="1" opacity="0.996078431372549" d="M 99.5 50 L 99.5 51 L 99.5 50 Z " /><path fill="rgb(9,58,101)" stroke="rgb(9,58,101)" stroke-width="1" opacity="0.996078431372549" d="M 104.5 51 L 106 52.5 L 106 66.5 L 105 66.5 L 105 52.5 L 104.5 51 Z " /><path fill="rgb(9,58,101)" stroke="rgb(9,58,101)" stroke-width="1" opacity="0.996078431372549" d="M 30.5 52 L 30.5 53 L 30.5 52 Z " /><path fill="rgb(9,58,101)" stroke="rgb(9,58,101)" stroke-width="1" opacity="0.996078431372549" d="M 37.5 52 L 37.5 53 L 37.5 52 Z " /><path fill="rgb(9,58,101)" stroke="rgb(9,58,101)" stroke-width="1" opacity="0.996078431372549" d="M 98.5 52 L 98.5 53 L 98.5 52 Z " /><path fill="rgb(9,58,101)" stroke="rgb(9,58,101)" stroke-width="1" opacity="0.996078431372549" d="M 33.5 53 L 33.5 54 L 33.5 53 Z " /><path fill="rgb(9,58,101)" stroke="rgb(9,58,101)" stroke-width="1" opacity="0.996078431372549" d="M 55.5 53 L 55.5 54 L 55.5 53 Z " /><path fill="rgb(9,58,101)" stroke="rgb(9,58,101)" stroke-width="1" opacity="0.996078431372549" d="M 80.5 53 L 80.5 54 L 80.5 53 Z " /><path fill="rgb(9,58,101)" stroke="rgb(9,58,101)" stroke-width="1" opacity="0.996078431372549" d="M 102.5 53 L 102.5 54 L 102.5 53 Z " /><path fill="rgb(9,58,101)" stroke="rgb(9,58,101)" stroke-width="1" opacity="0.996078431372549" d="M 57.5 54 L 57.5 55 L 57.5 54 Z " /><path fill="rgb(9,58,101)" stroke="rgb(9,58,101)" stroke-width="1" opacity="0.996078431372549" d="M 78.5 54 L 78.5 55 L 78.5 54 Z " /><path fill="rgb(9,58,101)" stroke="rgb(9,58,101)" stroke-width="1" opacity="0.996078431372549" d="M 81.5 55 L 81.5 56 L 81.5 55 Z " /><path fill="rgb(9,58,101)" stroke="rgb(9,58,101)" stroke-width="1" opacity="0.996078431372549" d="M 56.5 56 L 56.5 57 L 56.5 56 Z " /><path fill="rgb(9,58,101)" stroke="rgb(9,58,101)" stroke-width="1" opacity="0.996078431372549" d="M 79.5 56 L 79.5 57 L 79.5 56 Z " /><path fill="rgb(9,58,101)" stroke="rgb(9,58,101)" stroke-width="1" opacity="0.996078431372549" d="M 53.5 57 L 54 58.5 L 53 58.5 L 53.5 57 Z " /><path fill="rgb(9,58,101)" stroke="rgb(9,58,101)" stroke-width="1" opacity="0.996078431372549" d="M 82.5 58 L 83 63.5 L 82 63.5 L 82.5 58 Z " /><path fill="rgb(9,58,101)" stroke="rgb(9,58,101)" stroke-width="1" opacity="0.996078431372549" d="M 55.5 59 L 56 62.5 L 55 62.5 L 55.5 59 Z " /><path fill="rgb(9,58,101)" stroke="rgb(9,58,101)" stroke-width="1" opacity="0.996078431372549" d="M 53.5 63 L 54 64.5 L 53 64.5 L 53.5 63 Z " /><path fill="rgb(9,58,101)" stroke="rgb(9,58,101)" stroke-width="1" opacity="0.996078431372549" d="M 56.5 65 L 56.5 66 L 56.5 65 Z " /><path fill="rgb(9,58,101)" stroke="rgb(9,58,101)" stroke-width="1" opacity="0.996078431372549" d="M 79.5 65 L 79.5 66 L 79.5 65 Z " /><path fill="rgb(9,58,101)" stroke="rgb(9,58,101)" stroke-width="1" opacity="0.996078431372549" d="M 54.5 66 L 54.5 67 L 54.5 66 Z " /><path fill="rgb(9,58,101)" stroke="rgb(9,58,101)" stroke-width="1" opacity="0.996078431372549" d="M 81.5 66 L 81.5 67 L 81.5 66 Z " /><path fill="rgb(9,58,101)" stroke="rgb(9,58,101)" stroke-width="1" opacity="0.996078431372549" d="M 57.5 67 L 57.5 68 L 57.5 67 Z " /><path fill="rgb(9,58,101)" stroke="rgb(9,58,101)" stroke-width="1" opacity="0.996078431372549" d="M 78.5 67 Q 80 68 77.5 69 Q 76 68 78.5 67 Z " /><path fill="rgb(9,58,101)" stroke="rgb(9,58,101)" stroke-width="1" opacity="0.996078431372549" d="M 93.5 67 L 95 67.5 L 93.5 68 L 93.5 67 Z " /><path fill="rgb(9,58,101)" stroke="rgb(9,58,101)" stroke-width="1" opacity="0.996078431372549" d="M 33.5 68 L 33.5 69 L 33.5 68 Z " /><path fill="rgb(9,58,101)" stroke="rgb(9,58,101)" stroke-width="1" opacity="0.996078431372549" d="M 55.5 68 L 55.5 69 L 55.5 68 Z " /><path fill="rgb(9,58,101)" stroke="rgb(9,58,101)" stroke-width="1" opacity="0.996078431372549" d="M 80.5 68 Q 82 69 79.5 70 Q 78 69 80.5 68 Z " /><path fill="rgb(9,58,101)" stroke="rgb(9,58,101)" stroke-width="1" opacity="0.996078431372549" d="M 30.5 69 Q 33 70 31.5 71 Q 29 70 30.5 69 Z " /><path fill="rgb(9,58,101)" stroke="rgb(9,58,101)" stroke-width="1" opacity="0.996078431372549" d="M 37.5 69 L 37.5 70 L 37.5 69 Z " /><path fill="rgb(9,58,101)" stroke="rgb(9,58,101)" stroke-width="1" opacity="0.996078431372549" d="M 39.5 70 L 43 73.5 L 42.5 74 L 39 70.5 L 39.5 70 Z " /><path fill="rgb(9,58,101)" stroke="rgb(9,58,101)" stroke-width="1" opacity="0.996078431372549" d="M 75.5 70 Q 77 71 74.5 72 Q 73 71 75.5 70 Z " /><path fill="rgb(9,58,101)" stroke="rgb(9,58,101)" stroke-width="1" opacity="0.996078431372549" d="M 93.5 70 L 93.5 71 L 93.5 70 Z " /><path fill="rgb(9,58,101)" stroke="rgb(9,58,101)" stroke-width="1" opacity="0.996078431372549" d="M 115.5 70 L 115.5 71 L 115.5 70 Z " /><path fill="rgb(9,58,101)" stroke="rgb(9,58,101)" stroke-width="1" opacity="0.996078431372549" d="M 36.5 71 L 36.5 72 L 36.5 71 Z " /><path fill="rgb(9,58,101)" stroke="rgb(9,58,101)" stroke-width="1" opacity="0.996078431372549" d="M 57.5 71 L 57.5 72 L 57.5 71 Z " /><path fill="rgb(9,58,101)" stroke="rgb(9,58,101)" stroke-width="1" opacity="0.996078431372549" d="M 61.5 71 L 61.5 72 L 61.5 71 Z " /><path fill="rgb(9,58,101)" stroke="rgb(9,58,101)" stroke-width="1" opacity="0.996078431372549" d="M 90.5 71 L 91 72.5 L 90 72.5 L 90.5 71 Z " /><path fill="rgb(9,58,101)" stroke="rgb(9,58,101)" stroke-width="1" opacity="0.996078431372549" d="M 38.5 72 Q 41 73 39.5 74 Q 37 73 38.5 72 Z " /><path fill="rgb(9,58,101)" stroke="rgb(9,58,101)" stroke-width="1" opacity="0.996078431372549" d="M 63.5 72 L 63.5 73 L 63.5 72 Z " /><path fill="rgb(9,58,101)" stroke="rgb(9,58,101)" stroke-width="1" opacity="0.996078431372549" d="M 72.5 72 L 72.5 73 L 72.5 72 Z " /><path fill="rgb(9,58,101)" stroke="rgb(9,58,101)" stroke-width="1" opacity="0.996078431372549" d="M 76.5 72 Q 78 73 75.5 74 Q 74 73 76.5 72 Z " /><path fill="rgb(9,58,101)" stroke="rgb(9,58,101)" stroke-width="1" opacity="0.996078431372549" d="M 60.5 73 L 60.5 74 L 60.5 73 Z " /><path fill="rgb(9,58,101)" stroke="rgb(9,58,101)" stroke-width="1" opacity="0.996078431372549" d="M 93.5 73 L 93.5 74 L 93.5 73 Z " /><path fill="rgb(9,58,101)" stroke="rgb(9,58,101)" stroke-width="1" opacity="0.996078431372549" d="M 115.5 73 L 115.5 74 L 115.5 73 Z " /><path fill="rgb(9,58,101)" stroke="rgb(9,58,101)" stroke-width="1" opacity="0.996078431372549" d="M 62.5 74 L 62.5 75 L 62.5 74 Z " /><path fill="rgb(9,58,101)" stroke="rgb(9,58,101)" stroke-width="1" opacity="0.996078431372549" d="M 73.5 74 L 73.5 75 L 73.5 74 Z " /><path fill="rgb(9,58,101)" stroke="rgb(9,58,101)" stroke-width="1" opacity="0.996078431372549" d="M 91.5 74 L 92 75.5 L 91 75.5 L 91.5 74 Z " /><path fill="rgb(9,58,101)" stroke="rgb(9,58,101)" stroke-width="1" opacity="0.996078431372549" d="M 65.5 75 L 67 75.5 L 65.5 76 L 65.5 75 Z " /><path fill="rgb(9,58,101)" stroke="rgb(9,58,101)" stroke-width="1" opacity="0.996078431372549" d="M 69.5 75 L 71 75.5 L 69.5 76 L 69.5 75 Z " /><path fill="rgb(9,58,101)" stroke="rgb(9,58,101)" stroke-width="1" opacity="0.996078431372549" d="M 43.5 76 L 43.5 77 L 43.5 76 Z " /><path fill="rgb(9,58,101)" stroke="rgb(9,58,101)" stroke-width="1" opacity="0.996078431372549" d="M 93.5 76 L 93.5 77 L 93.5 76 Z " /><path fill="rgb(9,58,101)" stroke="rgb(9,58,101)" stroke-width="1" opacity="0.996078431372549" d="M 115.5 76 L 115.5 77 L 115.5 76 Z " /><path fill="rgb(9,58,101)" stroke="rgb(9,58,101)" stroke-width="1" opacity="0.996078431372549" d="M 41.5 77 L 43 79.5 Q 42 81 41 78.5 L 41.5 77 Z " /><path fill="rgb(9,58,101)" stroke="rgb(9,58,101)" stroke-width="1" opacity="0.996078431372549" d="M 93.5 79 L 93.5 80 L 93.5 79 Z " /><path fill="rgb(9,58,101)" stroke="rgb(9,58,101)" stroke-width="1" opacity="0.996078431372549" d="M 115.5 79 L 115.5 80 L 115.5 79 Z " /><path fill="rgb(9,58,101)" stroke="rgb(9,58,101)" stroke-width="1" opacity="0.996078431372549" d="M 91.5 80 L 92 81.5 L 91 81.5 L 91.5 80 Z " /><path fill="rgb(9,58,101)" stroke="rgb(9,58,101)" stroke-width="1" opacity="0.996078431372549" d="M 94.5 82 L 94.5 83 L 94.5 82 Z " /><path fill="rgb(9,58,101)" stroke="rgb(9,58,101)" stroke-width="1" opacity="0.996078431372549" d="M 114.5 82 L 114.5 83 L 114.5 82 Z " /><path fill="rgb(9,58,101)" stroke="rgb(9,58,101)" stroke-width="1" opacity="0.996078431372549" d="M 25.5 85 L 25.5 86 L 25.5 85 Z " /><path fill="rgb(9,58,101)" stroke="rgb(9,58,101)" stroke-width="1" opacity="0.996078431372549" d="M 94.5 86 L 94.5 87 L 94.5 86 Z " /><path fill="rgb(9,58,101)" stroke="rgb(9,58,101)" stroke-width="1" opacity="0.996078431372549" d="M 114.5 86 L 114.5 87 L 114.5 86 Z " /><path fill="rgb(9,58,101)" stroke="rgb(9,58,101)" stroke-width="1" opacity="0.996078431372549" d="M 93.5 89 L 93.5 90 L 93.5 89 Z " /><path fill="rgb(9,58,101)" stroke="rgb(9,58,101)" stroke-width="1" opacity="0.996078431372549" d="M 115.5 89 L 115.5 90 L 115.5 89 Z " /><path fill="rgb(9,58,101)" stroke="rgb(9,58,101)" stroke-width="1" opacity="0.996078431372549" d="M 93.5 92 L 93.5 93 L 93.5 92 Z " /><path fill="rgb(9,58,101)" stroke="rgb(9,58,101)" stroke-width="1" opacity="0.996078431372549" d="M 115.5 92 L 115.5 93 L 115.5 92 Z " /><path fill="rgb(9,58,101)" stroke="rgb(9,58,101)" stroke-width="1" opacity="0.996078431372549" d="M 94.5 95 L 94.5 96 L 94.5 95 Z " /><path fill="rgb(9,58,101)" stroke="rgb(9,58,101)" stroke-width="1" opacity="0.996078431372549" d="M 114.5 95 L 114.5 96 L 114.5 95 Z " /><path fill="rgb(9,58,101)" stroke="rgb(9,58,101)" stroke-width="1" opacity="0.996078431372549" d="M 72.5 113 L 73 114.5 L 72 114.5 L 72.5 113 Z " /><path fill="rgb(9,58,101)" stroke="rgb(9,58,101)" stroke-width="1" opacity="0.996078431372549" d="M 12.5 114 L 12.5 115 L 12.5 114 Z " /><path fill="rgb(9,58,101)" stroke="rgb(9,58,101)" stroke-width="1" opacity="0.996078431372549" d="M 13.5 116 Q 16 117 14.5 118 Q 12 117 13.5 116 Z " /><path fill="rgb(9,58,101)" stroke="rgb(9,58,101)" stroke-width="1" opacity="0.996078431372549" d="M 16.5 118 L 68 118.5 L 16.5 119 L 16.5 118 Z " /><path fill="rgb(8,56,99)" stroke="rgb(8,56,99)" stroke-width="1" opacity="1" d="M 15.5 7 L 68.5 7 L 73 9 Q 72.5 11.5 75 12.5 L 75 36 L 110.5 36 L 112 37.5 L 112 66.5 Q 111.75 67.25 114.5 67 L 118 69.5 L 118 80.5 L 117 81.5 Q 119 82.5 118 86.5 Q 116 87.5 118 88.5 L 118 99.5 L 116.5 101 L 114.5 102 L 93.5 102 L 90 97.5 Q 92.25 96.25 91 91.5 Q 89 90.5 91 89.5 Q 91.38 85.88 90.5 86 L 75 86 L 75 115.5 Q 72.5 116.5 73 119 L 68.5 121 L 15.5 121 L 11 117.5 L 10 115.5 L 10 12.5 L 13.5 8 L 15.5 7 Z M 17 9 L 15 10 L 12 14 L 12 25 L 73 25 L 73 25 L 73 14 L 68 9 L 17 9 Z M 12 27 L 12 97 L 73 97 L 73 97 L 73 86 L 27 86 L 26 85 L 24 85 L 24 38 L 26 36 L 73 36 L 73 28 L 73 27 L 12 27 Z M 26 39 L 26 83 L 91 83 L 92 82 L 92 80 L 44 80 L 40 74 Q 38 70 33 71 L 30 69 L 30 54 L 31 51 L 36 51 L 40 49 L 42 44 L 44 42 L 93 42 L 94 44 L 95 48 L 100 51 Q 104 50 105 53 L 105 67 Q 105 68 109 67 L 109 39 L 26 39 Z M 43 45 L 43 48 L 37 53 Q 33 53 33 54 L 33 69 L 39 70 L 43 75 L 43 77 L 91 77 L 92 76 Q 90 74 91 70 L 96 67 L 103 67 L 103 53 Q 96 53 93 48 Q 93 45 93 45 L 43 45 Z M 93 70 Q 92 74 94 74 L 116 74 Q 116 70 116 70 L 93 70 Z M 93 76 Q 92 80 94 80 L 116 80 Q 116 76 116 76 L 93 76 Z M 95 82 Q 93 83 93 86 L 95 87 L 115 87 Q 117 87 116 84 L 115 82 L 95 82 Z M 93 89 Q 92 93 94 93 L 116 93 Q 116 89 116 89 L 93 89 Z M 95 95 Q 92 96 93 99 L 116 99 Q 116 99 116 97 L 115 95 L 95 95 Z M 12 100 L 12 115 L 13 117 L 17 119 L 68 119 L 73 115 L 73 101 L 73 100 L 12 100 Z " /><path fill="rgb(8,56,99)" stroke="rgb(8,56,99)" stroke-width="1" opacity="1" d="M 66.5 46 L 72.5 47 Q 77.33 48.67 80 52.5 L 82 56.5 L 82 65.5 L 77.5 72 L 72.5 75 L 67.5 76 L 59.5 73 L 56 69.5 L 53 62.5 L 53 59.5 Q 54.75 58.75 54 55.5 L 59.5 49 L 66.5 46 Z M 68 48 L 62 50 L 57 55 L 55 60 L 55 63 L 57 68 L 64 73 L 73 73 L 75 72 L 80 66 L 80 57 L 79 55 L 75 50 L 68 48 Z " /><path fill="rgb(8,56,99)" stroke="rgb(8,56,99)" stroke-width="1" opacity="1" d="M 36 108 L 48.5 108 L 49 110 L 36.5 110 L 36 108 Z " /><path fill="rgb(243,193,67)" stroke="rgb(243,193,67)" stroke-width="1" opacity="1" d="M 67.5 45 L 69 45.5 L 67.5 46 L 67.5 45 Z " /><path fill="rgb(243,193,67)" stroke="rgb(243,193,67)" stroke-width="1" opacity="1" d="M 91.5 45 L 91.5 46 L 91.5 45 Z " /><path fill="rgb(243,193,67)" stroke="rgb(243,193,67)" stroke-width="1" opacity="1" d="M 62.5 46 L 62.5 47 L 62.5 46 Z " /><path fill="rgb(243,193,67)" stroke="rgb(243,193,67)" stroke-width="1" opacity="1" d="M 73.5 46 L 73.5 47 L 73.5 46 Z " /><path fill="rgb(243,193,67)" stroke="rgb(243,193,67)" stroke-width="1" opacity="1" d="M 60.5 47 L 60.5 48 L 60.5 47 Z " /><path fill="rgb(243,193,67)" stroke="rgb(243,193,67)" stroke-width="1" opacity="1" d="M 75.5 47 L 75.5 48 L 75.5 47 Z " /><path fill="rgb(243,193,67)" stroke="rgb(243,193,67)" stroke-width="1" opacity="1" d="M 42.5 49 L 43 49.5 L 40.5 52 L 40 51.5 L 42.5 49 Z " /><path fill="rgb(243,193,67)" stroke="rgb(243,193,67)" stroke-width="1" opacity="1" d="M 57.5 49 Q 59 50 56.5 51 Q 55 50 57.5 49 Z " /><path fill="rgb(243,193,67)" stroke="rgb(243,193,67)" stroke-width="1" opacity="1" d="M 93.5 49 L 96 51.5 L 95.5 52 L 93 49.5 L 93.5 49 Z " /><path fill="rgb(243,193,67)" stroke="rgb(243,193,67)" stroke-width="1" opacity="1" d="M 36.5 53 L 36.5 54 L 36.5 53 Z " /><path fill="rgb(243,193,67)" stroke="rgb(243,193,67)" stroke-width="1" opacity="1" d="M 54.5 53 L 54.5 54 L 54.5 53 Z " /><path fill="rgb(243,193,67)" stroke="rgb(243,193,67)" stroke-width="1" opacity="1" d="M 99.5 53 L 99.5 54 L 99.5 53 Z " /><path fill="rgb(243,193,67)" stroke="rgb(243,193,67)" stroke-width="1" opacity="1" d="M 53.5 55 L 53.5 56 L 53.5 55 Z " /><path fill="rgb(243,193,67)" stroke="rgb(243,193,67)" stroke-width="1" opacity="1" d="M 52.5 59 L 53 62.5 L 52 62.5 L 52.5 59 Z " /><path fill="rgb(243,193,67)" stroke="rgb(243,193,67)" stroke-width="1" opacity="1" d="M 53.5 66 L 53.5 67 L 53.5 66 Z " /><path fill="rgb(243,193,67)" stroke="rgb(243,193,67)" stroke-width="1" opacity="1" d="M 36.5 68 L 36.5 69 L 36.5 68 Z " /><path fill="rgb(243,193,67)" stroke="rgb(243,193,67)" stroke-width="1" opacity="1" d="M 54.5 68 L 54.5 69 L 54.5 68 Z " /><path fill="rgb(243,193,67)" stroke="rgb(243,193,67)" stroke-width="1" opacity="1" d="M 40.5 70 L 43 72.5 L 42.5 73 L 40 70.5 L 40.5 70 Z " /><path fill="rgb(243,193,67)" stroke="rgb(243,193,67)" stroke-width="1" opacity="1" d="M 60.5 74 L 60.5 75 L 60.5 74 Z " /><path fill="rgb(243,193,67)" stroke="rgb(243,193,67)" stroke-width="1" opacity="1" d="M 90.5 74 L 91 75.5 L 90 75.5 L 90.5 74 Z " /><path fill="rgb(243,193,67)" stroke="rgb(243,193,67)" stroke-width="1" opacity="1" d="M 62.5 75 L 62.5 76 L 62.5 75 Z " /><path fill="rgb(243,193,67)" stroke="rgb(243,193,67)" stroke-width="1" opacity="1" d="M 94 77 L 114.5 77 L 115 79 L 94.5 79 L 94 77 Z " /><path fill="rgb(243,193,67)" stroke="rgb(243,193,67)" stroke-width="1" opacity="1" d="M 94 90 L 114.5 90 L 115 92 L 94.5 92 L 94 90 Z " /><path fill="rgb(3,141,163)" stroke="rgb(3,141,163)" stroke-width="1" opacity="1" d="M 15.5 10 L 15.5 11 L 15.5 10 Z " /><path fill="rgb(3,141,163)" stroke="rgb(3,141,163)" stroke-width="1" opacity="1" d="M 69.5 10 L 72 12.5 L 71.5 13 L 69 10.5 L 69.5 10 Z " /><path fill="rgb(3,141,163)" stroke="rgb(3,141,163)" stroke-width="1" opacity="1" d="M 12.5 14 L 12.5 15 L 12.5 14 Z " /><path fill="rgb(3,141,163)" stroke="rgb(3,141,163)" stroke-width="1" opacity="1" d="M 72.5 14 L 73 23.5 L 71.5 25 L 12.5 25 L 12.5 24 L 71.5 24 L 72 23.5 L 72.5 14 Z " /><path fill="rgb(3,141,163)" stroke="rgb(3,141,163)" stroke-width="1" opacity="1" d="M 12.5 27 L 71.5 27 L 73 28.5 L 72.5 36 L 72 28 L 12.5 28 L 12.5 27 Z " /><path fill="rgb(3,141,163)" stroke="rgb(3,141,163)" stroke-width="1" opacity="1" d="M 24.5 36 L 24.5 37 L 24.5 36 Z " /><path fill="rgb(3,141,163)" stroke="rgb(3,141,163)" stroke-width="1" opacity="1" d="M 94.5 43 L 94.5 44 L 94.5 43 Z " /><path fill="rgb(3,141,163)" stroke="rgb(3,141,163)" stroke-width="1" opacity="1" d="M 40.5 46 L 40.5 47 L 40.5 46 Z " /><path fill="rgb(3,141,163)" stroke="rgb(3,141,163)" stroke-width="1" opacity="1" d="M 95.5 46 L 95.5 47 L 95.5 46 Z " /><path fill="rgb(3,141,163)" stroke="rgb(3,141,163)" stroke-width="1" opacity="1" d="M 37.5 49 L 37.5 50 L 37.5 49 Z " /><path fill="rgb(3,141,163)" stroke="rgb(3,141,163)" stroke-width="1" opacity="1" d="M 64.5 49 L 64.5 50 L 64.5 49 Z " /><path fill="rgb(3,141,163)" stroke="rgb(3,141,163)" stroke-width="1" opacity="1" d="M 71.5 49 L 71.5 50 L 71.5 49 Z " /><path fill="rgb(3,141,163)" stroke="rgb(3,141,163)" stroke-width="1" opacity="1" d="M 98.5 49 L 98.5 50 L 98.5 49 Z " /><path fill="rgb(3,141,163)" stroke="rgb(3,141,163)" stroke-width="1" opacity="1" d="M 34.5 50 L 34.5 51 L 34.5 50 Z " /><path fill="rgb(3,141,163)" stroke="rgb(3,141,163)" stroke-width="1" opacity="1" d="M 73.5 50 L 73.5 51 L 73.5 50 Z " /><path fill="rgb(3,141,163)" stroke="rgb(3,141,163)" stroke-width="1" opacity="1" d="M 100.5 50 L 102 50.5 L 100.5 51 L 100.5 50 Z " /><path fill="rgb(3,141,163)" stroke="rgb(3,141,163)" stroke-width="1" opacity="1" d="M 30.5 51 L 30.5 52 L 30.5 51 Z " /><path fill="rgb(3,141,163)" stroke="rgb(3,141,163)" stroke-width="1" opacity="1" d="M 60.5 51 L 61 51.5 L 58.5 54 L 58 53.5 L 60.5 51 Z " /><path fill="rgb(3,141,163)" stroke="rgb(3,141,163)" stroke-width="1" opacity="1" d="M 75.5 51 L 78 53.5 L 77.5 54 L 75 51.5 L 75.5 51 Z " /><path fill="rgb(3,141,163)" stroke="rgb(3,141,163)" stroke-width="1" opacity="1" d="M 105.5 51 L 105.5 52 L 105.5 51 Z " /><path fill="rgb(3,141,163)" stroke="rgb(3,141,163)" stroke-width="1" opacity="1" d="M 78.5 55 L 78.5 56 L 78.5 55 Z " /><path fill="rgb(3,141,163)" stroke="rgb(3,141,163)" stroke-width="1" opacity="1" d="M 56.5 57 L 56.5 58 L 56.5 57 Z " /><path fill="rgb(3,141,163)" stroke="rgb(3,141,163)" stroke-width="1" opacity="1" d="M 79.5 57 L 80 58.5 L 79 58.5 L 79.5 57 Z " /><path fill="rgb(3,141,163)" stroke="rgb(3,141,163)" stroke-width="1" opacity="1" d="M 79.5 63 L 80 64.5 L 79 64.5 L 79.5 63 Z " /><path fill="rgb(3,141,163)" stroke="rgb(3,141,163)" stroke-width="1" opacity="1" d="M 56.5 64 L 56.5 65 L 56.5 64 Z " /><path fill="rgb(3,141,163)" stroke="rgb(3,141,163)" stroke-width="1" opacity="1" d="M 78.5 66 L 78.5 67 L 78.5 66 Z " /><path fill="rgb(3,141,163)" stroke="rgb(3,141,163)" stroke-width="1" opacity="1" d="M 58.5 68 L 61 70.5 L 60.5 71 L 58 68.5 L 58.5 68 Z " /><path fill="rgb(3,141,163)" stroke="rgb(3,141,163)" stroke-width="1" opacity="1" d="M 76.5 69 L 76.5 70 L 76.5 69 Z " /><path fill="rgb(3,141,163)" stroke="rgb(3,141,163)" stroke-width="1" opacity="1" d="M 30.5 70 L 30.5 71 L 30.5 70 Z " /><path fill="rgb(3,141,163)" stroke="rgb(3,141,163)" stroke-width="1" opacity="1" d="M 34.5 71 L 36 71.5 L 34.5 72 L 34.5 71 Z " /><path fill="rgb(3,141,163)" stroke="rgb(3,141,163)" stroke-width="1" opacity="1" d="M 73.5 71 L 73.5 72 L 73.5 71 Z " /><path fill="rgb(3,141,163)" stroke="rgb(3,141,163)" stroke-width="1" opacity="1" d="M 37.5 72 L 37.5 73 L 37.5 72 Z " /><path fill="rgb(3,141,163)" stroke="rgb(3,141,163)" stroke-width="1" opacity="1" d="M 64.5 72 L 64.5 73 L 64.5 72 Z " /><path fill="rgb(3,141,163)" stroke="rgb(3,141,163)" stroke-width="1" opacity="1" d="M 71.5 72 L 71.5 73 L 71.5 72 Z " /><path fill="rgb(3,141,163)" stroke="rgb(3,141,163)" stroke-width="1" opacity="1" d="M 93.5 72 L 94.5 73 L 114.5 73 L 116 72.5 L 114.5 74 L 94.5 74 Q 92 73 93.5 72 Z " /><path fill="rgb(3,141,163)" stroke="rgb(3,141,163)" stroke-width="1" opacity="1" d="M 40.5 75 L 40.5 76 L 40.5 75 Z " /><path fill="rgb(3,141,163)" stroke="rgb(3,141,163)" stroke-width="1" opacity="1" d="M 95.5 82 L 114 82.5 L 95.5 83 L 95.5 82 Z " /><path fill="rgb(3,141,163)" stroke="rgb(3,141,163)" stroke-width="1" opacity="1" d="M 93.5 83 L 93.5 84 L 93.5 83 Z " /><path fill="rgb(3,141,163)" stroke="rgb(3,141,163)" stroke-width="1" opacity="1" d="M 115.5 83 L 115.5 84 L 115.5 83 Z " /><path fill="rgb(3,141,163)" stroke="rgb(3,141,163)" stroke-width="1" opacity="1" d="M 24.5 85 L 24.5 86 L 24.5 85 Z " /><path fill="rgb(3,141,163)" stroke="rgb(3,141,163)" stroke-width="1" opacity="1" d="M 93.5 85 L 93.5 86 L 93.5 85 Z " /><path fill="rgb(3,141,163)" stroke="rgb(3,141,163)" stroke-width="1" opacity="1" d="M 115.5 85 L 115.5 86 L 115.5 85 Z " /><path fill="rgb(3,141,163)" stroke="rgb(3,141,163)" stroke-width="1" opacity="1" d="M 72.5 86 L 73 96.5 L 72 96.5 L 72.5 86 Z " /><path fill="rgb(3,141,163)" stroke="rgb(3,141,163)" stroke-width="1" opacity="1" d="M 95.5 86 L 114 86.5 L 95.5 87 L 95.5 86 Z " /><path fill="rgb(3,141,163)" stroke="rgb(3,141,163)" stroke-width="1" opacity="1" d="M 95.5 95 L 114 95.5 L 95.5 96 L 95.5 95 Z " /><path fill="rgb(3,141,163)" stroke="rgb(3,141,163)" stroke-width="1" opacity="1" d="M 93.5 96 L 93.5 97 L 93.5 96 Z " /><path fill="rgb(3,141,163)" stroke="rgb(3,141,163)" stroke-width="1" opacity="1" d="M 115.5 96 L 115.5 97 L 115.5 96 Z " /><path fill="rgb(3,141,163)" stroke="rgb(3,141,163)" stroke-width="1" opacity="1" d="M 93.5 98 L 93.5 99 L 93.5 98 Z " /><path fill="rgb(3,141,163)" stroke="rgb(3,141,163)" stroke-width="1" opacity="1" d="M 115.5 98 L 115.5 99 L 115.5 98 Z " /><path fill="rgb(3,141,163)" stroke="rgb(3,141,163)" stroke-width="1" opacity="1" d="M 72.5 100 L 73 112.5 L 72 112.5 L 72.5 100 Z " /><path fill="rgb(3,141,163)" stroke="rgb(3,141,163)" stroke-width="1" opacity="1" d="M 36.5 107 L 48 107.5 L 36 108 L 36.5 110 L 47.5 110 L 47.5 111 L 36.5 111 L 35 109.5 L 36.5 107 Z " /><path fill="rgb(3,141,163)" stroke="rgb(3,141,163)" stroke-width="1" opacity="1" d="M 12.5 113 L 12.5 114 L 12.5 113 Z " /><path fill="rgb(3,141,163)" stroke="rgb(3,141,163)" stroke-width="1" opacity="1" d="M 71.5 115 L 72 115.5 L 69.5 118 L 69 117.5 L 71.5 115 Z " /><path fill="rgb(3,141,163)" stroke="rgb(3,141,163)" stroke-width="1" opacity="1" d="M 15.5 117 L 15.5 118 L 15.5 117 Z " /><path fill="rgb(254,219,65)" stroke="rgb(254,219,65)" stroke-width="1" opacity="1" d="M 44 45 L 67 45.5 L 62.5 46 L 56 50.5 L 53 55.5 L 52 62.5 L 54 68.5 L 60.5 75 L 62.5 76 L 72.5 76 Q 78 74 81 69.5 L 83 65.5 L 83 56.5 Q 80.67 50.33 75.5 47 L 69 45.5 L 90.5 45 L 95.5 52 L 99.5 54 L 102 54 L 102 67 L 92.5 67 L 90 69.5 L 90 77 L 44.5 77 Q 43.75 77.25 44 74.5 L 40.5 70 L 36.5 68 L 33 68 L 33 54.5 Q 32.88 53.62 36.5 54 L 43 49.5 L 44 45 Z " /><path fill="rgb(167,151,77)" stroke="rgb(167,151,77)" stroke-width="1" opacity="1" d="M 43.5 46 L 44 47.5 L 43 47.5 L 43.5 46 Z " /><path fill="rgb(167,151,77)" stroke="rgb(167,151,77)" stroke-width="1" opacity="1" d="M 63.5 46 L 63.5 47 L 63.5 46 Z " /><path fill="rgb(167,151,77)" stroke="rgb(167,151,77)" stroke-width="1" opacity="1" d="M 71.5 46 L 73 46.5 L 71.5 47 L 71.5 46 Z " /><path fill="rgb(167,151,77)" stroke="rgb(167,151,77)" stroke-width="1" opacity="1" d="M 61.5 47 L 61.5 48 L 61.5 47 Z " /><path fill="rgb(167,151,77)" stroke="rgb(167,151,77)" stroke-width="1" opacity="1" d="M 74.5 47 L 74.5 48 L 74.5 47 Z " /><path fill="rgb(167,151,77)" stroke="rgb(167,151,77)" stroke-width="1" opacity="1" d="M 92.5 47 L 92.5 48 L 92.5 47 Z " /><path fill="rgb(167,151,77)" stroke="rgb(167,151,77)" stroke-width="1" opacity="1" d="M 59.5 48 L 59.5 49 L 59.5 48 Z " /><path fill="rgb(167,151,77)" stroke="rgb(167,151,77)" stroke-width="1" opacity="1" d="M 76.5 48 L 81 52.5 L 80.5 53 L 76 48.5 L 76.5 48 Z " /><path fill="rgb(167,151,77)" stroke="rgb(167,151,77)" stroke-width="1" opacity="1" d="M 38.5 52 L 38.5 53 L 38.5 52 Z " /><path fill="rgb(167,151,77)" stroke="rgb(167,151,77)" stroke-width="1" opacity="1" d="M 55.5 52 L 55.5 53 L 55.5 52 Z " /><path fill="rgb(167,151,77)" stroke="rgb(167,151,77)" stroke-width="1" opacity="1" d="M 97.5 52 L 97.5 53 L 97.5 52 Z " /><path fill="rgb(167,151,77)" stroke="rgb(167,151,77)" stroke-width="1" opacity="1" d="M 34.5 53 L 36 53.5 L 34.5 54 L 34.5 53 Z " /><path fill="rgb(167,151,77)" stroke="rgb(167,151,77)" stroke-width="1" opacity="1" d="M 100.5 53 L 103 54.5 L 102.5 67 L 102 54 L 100 53.5 L 100.5 53 Z " /><path fill="rgb(167,151,77)" stroke="rgb(167,151,77)" stroke-width="1" opacity="1" d="M 54.5 54 L 54.5 55 L 54.5 54 Z " /><path fill="rgb(167,151,77)" stroke="rgb(167,151,77)" stroke-width="1" opacity="1" d="M 81.5 54 L 81.5 55 L 81.5 54 Z " /><path fill="rgb(167,151,77)" stroke="rgb(167,151,77)" stroke-width="1" opacity="1" d="M 53.5 56 L 53.5 57 L 53.5 56 Z " /><path fill="rgb(167,151,77)" stroke="rgb(167,151,77)" stroke-width="1" opacity="1" d="M 82.5 56 L 83 57.5 L 82 57.5 L 82.5 56 Z " /><path fill="rgb(167,151,77)" stroke="rgb(167,151,77)" stroke-width="1" opacity="1" d="M 82.5 64 L 83 65.5 L 82 65.5 L 82.5 64 Z " /><path fill="rgb(167,151,77)" stroke="rgb(167,151,77)" stroke-width="1" opacity="1" d="M 53.5 65 L 53.5 66 L 53.5 65 Z " /><path fill="rgb(167,151,77)" stroke="rgb(167,151,77)" stroke-width="1" opacity="1" d="M 54.5 67 L 54.5 68 L 54.5 67 Z " /><path fill="rgb(167,151,77)" stroke="rgb(167,151,77)" stroke-width="1" opacity="1" d="M 81.5 67 L 81.5 68 L 81.5 67 Z " /><path fill="rgb(167,151,77)" stroke="rgb(167,151,77)" stroke-width="1" opacity="1" d="M 92.5 67 L 93 67.5 L 91 69.5 L 90.5 71 L 90 69.5 L 92.5 67 Z " /><path fill="rgb(167,151,77)" stroke="rgb(167,151,77)" stroke-width="1" opacity="1" d="M 34.5 68 L 36 68.5 L 34.5 69 L 34.5 68 Z " /><path fill="rgb(167,151,77)" stroke="rgb(167,151,77)" stroke-width="1" opacity="1" d="M 38.5 69 L 38.5 70 L 38.5 69 Z " /><path fill="rgb(167,151,77)" stroke="rgb(167,151,77)" stroke-width="1" opacity="1" d="M 55.5 69 Q 58 70 56.5 71 Q 54 70 55.5 69 Z " /><path fill="rgb(167,151,77)" stroke="rgb(167,151,77)" stroke-width="1" opacity="1" d="M 80.5 69 L 81 69.5 L 76.5 74 L 76 73.5 L 80.5 69 Z " /><path fill="rgb(167,151,77)" stroke="rgb(167,151,77)" stroke-width="1" opacity="1" d="M 58.5 72 Q 61 73 59.5 74 Q 57 73 58.5 72 Z " /><path fill="rgb(167,151,77)" stroke="rgb(167,151,77)" stroke-width="1" opacity="1" d="M 90.5 73 L 90.5 74 L 90.5 73 Z " /><path fill="rgb(167,151,77)" stroke="rgb(167,151,77)" stroke-width="1" opacity="1" d="M 43.5 74 L 44 75.5 L 43 75.5 L 43.5 74 Z " /><path fill="rgb(167,151,77)" stroke="rgb(167,151,77)" stroke-width="1" opacity="1" d="M 61.5 74 L 61.5 75 L 61.5 74 Z " /><path fill="rgb(167,151,77)" stroke="rgb(167,151,77)" stroke-width="1" opacity="1" d="M 74.5 74 L 74.5 75 L 74.5 74 Z " /><path fill="rgb(167,151,77)" stroke="rgb(167,151,77)" stroke-width="1" opacity="1" d="M 63.5 75 L 65 75.5 L 63.5 76 L 63.5 75 Z " /><path fill="rgb(167,151,77)" stroke="rgb(167,151,77)" stroke-width="1" opacity="1" d="M 71.5 75 L 73 75.5 L 71.5 76 L 71.5 75 Z " /><path fill="rgb(167,151,77)" stroke="rgb(167,151,77)" stroke-width="1" opacity="1" d="M 90.5 76 L 90.5 77 L 90.5 76 Z " /><path fill="rgb(167,151,77)" stroke="rgb(167,151,77)" stroke-width="1" opacity="1" d="M 94.5 76 L 114.5 76 L 116 77.5 L 114.5 80 L 94.5 80 L 93 78.5 L 94.5 76 Z M 94 77 L 95 79 L 115 79 L 115 77 L 94 77 Z " /><path fill="rgb(167,151,77)" stroke="rgb(167,151,77)" stroke-width="1" opacity="1" d="M 94.5 89 L 114.5 89 L 116 90.5 L 114.5 93 L 94.5 93 L 93 91.5 L 94.5 89 Z M 94 90 L 95 92 L 115 92 L 115 90 L 94 90 Z " /><path fill="rgb(1,149,207)" stroke="rgb(1,149,207)" stroke-width="1" opacity="1" d="M 68.5 10 L 68.5 11 L 68.5 10 Z " /><path fill="rgb(1,149,207)" stroke="rgb(1,149,207)" stroke-width="1" opacity="1" d="M 14.5 11 Q 16 12 13.5 13 Q 12 12 14.5 11 Z " /><path fill="rgb(1,149,207)" stroke="rgb(1,149,207)" stroke-width="1" opacity="1" d="M 12.5 15 L 13 23.5 L 12 23.5 L 12.5 15 Z " /><path fill="rgb(1,149,207)" stroke="rgb(1,149,207)" stroke-width="1" opacity="1" d="M 41.5 42 L 41.5 43 L 41.5 42 Z " /><path fill="rgb(1,149,207)" stroke="rgb(1,149,207)" stroke-width="1" opacity="1" d="M 94.5 42 L 94.5 43 L 94.5 42 Z " /><path fill="rgb(1,149,207)" stroke="rgb(1,149,207)" stroke-width="1" opacity="1" d="M 40.5 45 L 40.5 46 L 40.5 45 Z " /><path fill="rgb(1,149,207)" stroke="rgb(1,149,207)" stroke-width="1" opacity="1" d="M 39.5 47 Q 41 48 38.5 49 Q 37 48 39.5 47 Z " /><path fill="rgb(1,149,207)" stroke="rgb(1,149,207)" stroke-width="1" opacity="1" d="M 96.5 47 Q 99 48 97.5 49 Q 95 48 96.5 47 Z " /><path fill="rgb(1,149,207)" stroke="rgb(1,149,207)" stroke-width="1" opacity="1" d="M 36.5 49 L 36.5 50 L 36.5 49 Z " /><path fill="rgb(1,149,207)" stroke="rgb(1,149,207)" stroke-width="1" opacity="1" d="M 65.5 49 L 65.5 50 L 65.5 49 Z " /><path fill="rgb(1,149,207)" stroke="rgb(1,149,207)" stroke-width="1" opacity="1" d="M 70.5 49 L 70.5 50 L 70.5 49 Z " /><path fill="rgb(1,149,207)" stroke="rgb(1,149,207)" stroke-width="1" opacity="1" d="M 32.5 50 L 34 50.5 L 32.5 51 L 32.5 50 Z " /><path fill="rgb(1,149,207)" stroke="rgb(1,149,207)" stroke-width="1" opacity="1" d="M 62.5 50 L 62.5 51 L 62.5 50 Z " /><path fill="rgb(1,149,207)" stroke="rgb(1,149,207)" stroke-width="1" opacity="1" d="M 102.5 50 L 104 50.5 L 102.5 51 L 102.5 50 Z " /><path fill="rgb(1,149,207)" stroke="rgb(1,149,207)" stroke-width="1" opacity="1" d="M 57.5 55 L 57.5 56 L 57.5 55 Z " /><path fill="rgb(1,149,207)" stroke="rgb(1,149,207)" stroke-width="1" opacity="1" d="M 79.5 59 L 79.5 60 L 79.5 59 Z " /><path fill="rgb(1,149,207)" stroke="rgb(1,149,207)" stroke-width="1" opacity="1" d="M 79.5 62 L 79.5 63 L 79.5 62 Z " /><path fill="rgb(1,149,207)" stroke="rgb(1,149,207)" stroke-width="1" opacity="1" d="M 56.5 63 L 56.5 64 L 56.5 63 Z " /><path fill="rgb(1,149,207)" stroke="rgb(1,149,207)" stroke-width="1" opacity="1" d="M 57.5 66 L 57.5 67 L 57.5 66 Z " /><path fill="rgb(1,149,207)" stroke="rgb(1,149,207)" stroke-width="1" opacity="1" d="M 33.5 71 L 33.5 72 L 33.5 71 Z " /><path fill="rgb(1,149,207)" stroke="rgb(1,149,207)" stroke-width="1" opacity="1" d="M 62.5 71 L 62.5 72 L 62.5 71 Z " /><path fill="rgb(1,149,207)" stroke="rgb(1,149,207)" stroke-width="1" opacity="1" d="M 65.5 72 L 65.5 73 L 65.5 72 Z " /><path fill="rgb(1,149,207)" stroke="rgb(1,149,207)" stroke-width="1" opacity="1" d="M 69.5 72 L 71 72.5 L 69.5 73 L 69.5 72 Z " /><path fill="rgb(1,149,207)" stroke="rgb(1,149,207)" stroke-width="1" opacity="1" d="M 38.5 73 Q 41 74 39.5 75 Q 37 74 38.5 73 Z " /><path fill="rgb(1,149,207)" stroke="rgb(1,149,207)" stroke-width="1" opacity="1" d="M 40.5 76 L 40.5 77 L 40.5 76 Z " /><path fill="rgb(1,149,207)" stroke="rgb(1,149,207)" stroke-width="1" opacity="1" d="M 41.5 79 L 41.5 80 L 41.5 79 Z " /><path fill="rgb(1,149,207)" stroke="rgb(1,149,207)" stroke-width="1" opacity="1" d="M 90.5 80 L 90.5 81 L 90.5 80 Z " /><path fill="rgb(1,149,207)" stroke="rgb(1,149,207)" stroke-width="1" opacity="1" d="M 90.5 82 L 90.5 83 L 90.5 82 Z " /><path fill="rgb(1,149,207)" stroke="rgb(1,149,207)" stroke-width="1" opacity="1" d="M 12.5 100 L 13 112.5 L 12 112.5 L 12.5 100 Z " /><path fill="rgb(1,149,207)" stroke="rgb(1,149,207)" stroke-width="1" opacity="1" d="M 48.5 107 L 50 109.5 Q 49 112 48 110.5 L 49 108.5 L 48.5 107 Z " /><path fill="rgb(1,149,207)" stroke="rgb(1,149,207)" stroke-width="1" opacity="1" d="M 13.5 115 Q 16 116 14.5 117 Q 12 116 13.5 115 Z " /></svg>